<svg width="156" height="24" viewBox="0 0 156 24" fill="none" xmlns="http://www.w3.org/2000/svg">
<path d="M13.5156 4.28125C11.3802 4.28125 9.47396 5.11979 7.79688 6.79688C6.13021 8.47396 5.29688 10.401 5.29688 12.5781C5.29688 14.4115 5.90625 15.9479 7.125 17.1875C8.35417 18.4167 9.93229 19.0312 11.8594 19.0312C13.974 19.0312 15.8698 18.2135 17.5469 16.5781C19.2344 14.9323 20.0781 12.9792 20.0781 10.7188C20.0781 8.88542 19.4583 7.35417 18.2188 6.125C16.9792 4.89583 15.4115 4.28125 13.5156 4.28125ZM0.265625 12.8594C0.265625 9.48438 1.63021 6.5 4.35938 3.90625C7.09896 1.30208 10.2604 0 13.8438 0C17.1458 0 19.849 1.02083 21.9531 3.0625C24.0573 5.09375 25.1094 7.55729 25.1094 10.4531C25.1094 12.7135 24.4792 14.8438 23.2188 16.8438C21.9583 18.8333 20.2865 20.4167 18.2031 21.5938C16.1302 22.7708 13.9271 23.3594 11.5938 23.3594C8.29167 23.3594 5.57812 22.3438 3.45312 20.3125C1.32812 18.2708 0.265625 15.7865 0.265625 12.8594Z" fill="#2E1066"/>
<path d="M13.5156 4.28125C11.3802 4.28125 9.47396 5.11979 7.79688 6.79688C6.13021 8.47396 5.29688 10.401 5.29688 12.5781C5.29688 14.4115 5.90625 15.9479 7.125 17.1875C8.35417 18.4167 9.93229 19.0312 11.8594 19.0312C13.974 19.0312 15.8698 18.2135 17.5469 16.5781C19.2344 14.9323 20.0781 12.9792 20.0781 10.7188C20.0781 8.88542 19.4583 7.35417 18.2188 6.125C16.9792 4.89583 15.4115 4.28125 13.5156 4.28125ZM0.265625 12.8594C0.265625 9.48438 1.63021 6.5 4.35938 3.90625C7.09896 1.30208 10.2604 0 13.8438 0C17.1458 0 19.849 1.02083 21.9531 3.0625C24.0573 5.09375 25.1094 7.55729 25.1094 10.4531C25.1094 12.7135 24.4792 14.8438 23.2188 16.8438C21.9583 18.8333 20.2865 20.4167 18.2031 21.5938C16.1302 22.7708 13.9271 23.3594 11.5938 23.3594C8.29167 23.3594 5.57812 22.3438 3.45312 20.3125C1.32812 18.2708 0.265625 15.7865 0.265625 12.8594Z" fill="#410F9E"/>
<path d="M13.5156 4.28125C11.3802 4.28125 9.47396 5.11979 7.79688 6.79688C6.13021 8.47396 5.29688 10.401 5.29688 12.5781C5.29688 14.4115 5.90625 15.9479 7.125 17.1875C8.35417 18.4167 9.93229 19.0312 11.8594 19.0312C13.974 19.0312 15.8698 18.2135 17.5469 16.5781C19.2344 14.9323 20.0781 12.9792 20.0781 10.7188C20.0781 8.88542 19.4583 7.35417 18.2188 6.125C16.9792 4.89583 15.4115 4.28125 13.5156 4.28125ZM0.265625 12.8594C0.265625 9.48438 1.63021 6.5 4.35938 3.90625C7.09896 1.30208 10.2604 0 13.8438 0C17.1458 0 19.849 1.02083 21.9531 3.0625C24.0573 5.09375 25.1094 7.55729 25.1094 10.4531C25.1094 12.7135 24.4792 14.8438 23.2188 16.8438C21.9583 18.8333 20.2865 20.4167 18.2031 21.5938C16.1302 22.7708 13.9271 23.3594 11.5938 23.3594C8.29167 23.3594 5.57812 22.3438 3.45312 20.3125C1.32812 18.2708 0.265625 15.7865 0.265625 12.8594Z" fill="#453888"/>
<path d="M13.5156 4.28125C11.3802 4.28125 9.47396 5.11979 7.79688 6.79688C6.13021 8.47396 5.29688 10.401 5.29688 12.5781C5.29688 14.4115 5.90625 15.9479 7.125 17.1875C8.35417 18.4167 9.93229 19.0312 11.8594 19.0312C13.974 19.0312 15.8698 18.2135 17.5469 16.5781C19.2344 14.9323 20.0781 12.9792 20.0781 10.7188C20.0781 8.88542 19.4583 7.35417 18.2188 6.125C16.9792 4.89583 15.4115 4.28125 13.5156 4.28125ZM0.265625 12.8594C0.265625 9.48438 1.63021 6.5 4.35938 3.90625C7.09896 1.30208 10.2604 0 13.8438 0C17.1458 0 19.849 1.02083 21.9531 3.0625C24.0573 5.09375 25.1094 7.55729 25.1094 10.4531C25.1094 12.7135 24.4792 14.8438 23.2188 16.8438C21.9583 18.8333 20.2865 20.4167 18.2031 21.5938C16.1302 22.7708 13.9271 23.3594 11.5938 23.3594C8.29167 23.3594 5.57812 22.3438 3.45312 20.3125C1.32812 18.2708 0.265625 15.7865 0.265625 12.8594Z" fill="#5946D7"/>
<path d="M47.5462 0.46875H52.3431L47.6087 22.875H43.6087L35.4212 8.60938L32.4056 22.875H27.6087L32.3431 0.46875H36.3431L44.5462 14.75L47.5462 0.46875Z" fill="#2E1066"/>
<path d="M47.5462 0.46875H52.3431L47.6087 22.875H43.6087L35.4212 8.60938L32.4056 22.875H27.6087L32.3431 0.46875H36.3431L44.5462 14.75L47.5462 0.46875Z" fill="#410F9E"/>
<path d="M47.5462 0.46875H52.3431L47.6087 22.875H43.6087L35.4212 8.60938L32.4056 22.875H27.6087L32.3431 0.46875H36.3431L44.5462 14.75L47.5462 0.46875Z" fill="#453888"/>
<path d="M47.5462 0.46875H52.3431L47.6087 22.875H43.6087L35.4212 8.60938L32.4056 22.875H27.6087L32.3431 0.46875H36.3431L44.5462 14.75L47.5462 0.46875Z" fill="#5946D7"/>
<path d="M59.7019 18.5625H71.7019L70.7956 22.875H53.9987L58.7331 0.46875H75.2175L74.3269 4.79688H62.6394L61.6862 9.28125H70.7956L69.8737 13.5938H60.7487L59.7019 18.5625Z" fill="#2E1066"/>
<path d="M59.7019 18.5625H71.7019L70.7956 22.875H53.9987L58.7331 0.46875H75.2175L74.3269 4.79688H62.6394L61.6862 9.28125H70.7956L69.8737 13.5938H60.7487L59.7019 18.5625Z" fill="#410F9E"/>
<path d="M59.7019 18.5625H71.7019L70.7956 22.875H53.9987L58.7331 0.46875H75.2175L74.3269 4.79688H62.6394L61.6862 9.28125H70.7956L69.8737 13.5938H60.7487L59.7019 18.5625Z" fill="#453888"/>
<path d="M59.7019 18.5625H71.7019L70.7956 22.875H53.9987L58.7331 0.46875H75.2175L74.3269 4.79688H62.6394L61.6862 9.28125H70.7956L69.8737 13.5938H60.7487L59.7019 18.5625Z" fill="#5946D7"/>
<path d="M75.92 22.875L80.6544 0.46875H90.1231C92.019 0.46875 93.6127 1.10938 94.9044 2.39062C96.2065 3.67188 96.8575 5.16667 96.8575 6.875C96.8575 7.97917 96.6648 9 96.2794 9.9375C95.894 10.8646 95.4252 11.5938 94.8731 12.125C94.3315 12.6562 93.795 13.1042 93.2637 13.4688C92.7325 13.8333 92.2742 14.0781 91.8887 14.2031L91.3106 14.3906L94.3262 22.875H89.3262L86.67 15.0312H82.3887L80.7169 22.875H75.92ZM88.2169 10.7188C89.196 10.7188 90.0606 10.4219 90.8106 9.82812C91.571 9.22396 91.9512 8.42188 91.9512 7.42188C91.9512 6.69271 91.7325 6.07292 91.295 5.5625C90.8575 5.05208 90.2794 4.79688 89.5606 4.79688H84.5606L83.2794 10.7188H88.2169Z" fill="#2E1066"/>
<path d="M75.92 22.875L80.6544 0.46875H90.1231C92.019 0.46875 93.6127 1.10938 94.9044 2.39062C96.2065 3.67188 96.8575 5.16667 96.8575 6.875C96.8575 7.97917 96.6648 9 96.2794 9.9375C95.894 10.8646 95.4252 11.5938 94.8731 12.125C94.3315 12.6562 93.795 13.1042 93.2637 13.4688C92.7325 13.8333 92.2742 14.0781 91.8887 14.2031L91.3106 14.3906L94.3262 22.875H89.3262L86.67 15.0312H82.3887L80.7169 22.875H75.92ZM88.2169 10.7188C89.196 10.7188 90.0606 10.4219 90.8106 9.82812C91.571 9.22396 91.9512 8.42188 91.9512 7.42188C91.9512 6.69271 91.7325 6.07292 91.295 5.5625C90.8575 5.05208 90.2794 4.79688 89.5606 4.79688H84.5606L83.2794 10.7188H88.2169Z" fill="#410F9E"/>
<path d="M75.92 22.875L80.6544 0.46875H90.1231C92.019 0.46875 93.6127 1.10938 94.9044 2.39062C96.2065 3.67188 96.8575 5.16667 96.8575 6.875C96.8575 7.97917 96.6648 9 96.2794 9.9375C95.894 10.8646 95.4252 11.5938 94.8731 12.125C94.3315 12.6562 93.795 13.1042 93.2637 13.4688C92.7325 13.8333 92.2742 14.0781 91.8887 14.2031L91.3106 14.3906L94.3262 22.875H89.3262L86.67 15.0312H82.3887L80.7169 22.875H75.92ZM88.2169 10.7188C89.196 10.7188 90.0606 10.4219 90.8106 9.82812C91.571 9.22396 91.9512 8.42188 91.9512 7.42188C91.9512 6.69271 91.7325 6.07292 91.295 5.5625C90.8575 5.05208 90.2794 4.79688 89.5606 4.79688H84.5606L83.2794 10.7188H88.2169Z" fill="#453888"/>
<path d="M75.92 22.875L80.6544 0.46875H90.1231C92.019 0.46875 93.6127 1.10938 94.9044 2.39062C96.2065 3.67188 96.8575 5.16667 96.8575 6.875C96.8575 7.97917 96.6648 9 96.2794 9.9375C95.894 10.8646 95.4252 11.5938 94.8731 12.125C94.3315 12.6562 93.795 13.1042 93.2637 13.4688C92.7325 13.8333 92.2742 14.0781 91.8887 14.2031L91.3106 14.3906L94.3262 22.875H89.3262L86.67 15.0312H82.3887L80.7169 22.875H75.92ZM88.2169 10.7188C89.196 10.7188 90.0606 10.4219 90.8106 9.82812C91.571 9.22396 91.9512 8.42188 91.9512 7.42188C91.9512 6.69271 91.7325 6.07292 91.295 5.5625C90.8575 5.05208 90.2794 4.79688 89.5606 4.79688H84.5606L83.2794 10.7188H88.2169Z" fill="#5946D7"/>
<path d="M98.2319 21.0156C98.2319 20.3594 98.5183 19.7604 99.0912 19.2188C99.6642 18.6667 100.326 18.3906 101.076 18.3906C101.763 18.3906 102.326 18.6042 102.763 19.0312C103.211 19.4583 103.435 19.974 103.435 20.5781C103.435 21.2865 103.149 21.901 102.576 22.4219C102.003 22.9323 101.341 23.1875 100.591 23.1875C99.9037 23.1875 99.336 22.9688 98.8881 22.5312C98.4506 22.0938 98.2319 21.5885 98.2319 21.0156Z" fill="#2E1066"/>
<path d="M98.2319 21.0156C98.2319 20.3594 98.5183 19.7604 99.0912 19.2188C99.6642 18.6667 100.326 18.3906 101.076 18.3906C101.763 18.3906 102.326 18.6042 102.763 19.0312C103.211 19.4583 103.435 19.974 103.435 20.5781C103.435 21.2865 103.149 21.901 102.576 22.4219C102.003 22.9323 101.341 23.1875 100.591 23.1875C99.9037 23.1875 99.336 22.9688 98.8881 22.5312C98.4506 22.0938 98.2319 21.5885 98.2319 21.0156Z" fill="#410F9E"/>
<path d="M98.2319 21.0156C98.2319 20.3594 98.5183 19.7604 99.0912 19.2188C99.6642 18.6667 100.326 18.3906 101.076 18.3906C101.763 18.3906 102.326 18.6042 102.763 19.0312C103.211 19.4583 103.435 19.974 103.435 20.5781C103.435 21.2865 103.149 21.901 102.576 22.4219C102.003 22.9323 101.341 23.1875 100.591 23.1875C99.9037 23.1875 99.336 22.9688 98.8881 22.5312C98.4506 22.0938 98.2319 21.5885 98.2319 21.0156Z" fill="#453888"/>
<path d="M98.2319 21.0156C98.2319 20.3594 98.5183 19.7604 99.0912 19.2188C99.6642 18.6667 100.326 18.3906 101.076 18.3906C101.763 18.3906 102.326 18.6042 102.763 19.0312C103.211 19.4583 103.435 19.974 103.435 20.5781C103.435 21.2865 103.149 21.901 102.576 22.4219C102.003 22.9323 101.341 23.1875 100.591 23.1875C99.9037 23.1875 99.336 22.9688 98.8881 22.5312C98.4506 22.0938 98.2319 21.5885 98.2319 21.0156Z" fill="#5946D7"/>
<path d="M107.919 22.875L112.653 0.46875H122.122C124.018 0.46875 125.611 1.10938 126.903 2.39062C128.205 3.67188 128.856 5.16667 128.856 6.875C128.856 7.97917 128.664 9 128.278 9.9375C127.893 10.8646 127.424 11.5938 126.872 12.125C126.33 12.6562 125.794 13.1042 125.262 13.4688C124.731 13.8333 124.273 14.0781 123.887 14.2031L123.309 14.3906L126.325 22.875H121.325L118.669 15.0312H114.387L112.716 22.875H107.919ZM120.216 10.7188C121.195 10.7188 122.059 10.4219 122.809 9.82812C123.57 9.22396 123.95 8.42188 123.95 7.42188C123.95 6.69271 123.731 6.07292 123.294 5.5625C122.856 5.05208 122.278 4.79688 121.559 4.79688H116.559L115.278 10.7188H120.216Z" fill="#2E1066"/>
<path d="M107.919 22.875L112.653 0.46875H122.122C124.018 0.46875 125.611 1.10938 126.903 2.39062C128.205 3.67188 128.856 5.16667 128.856 6.875C128.856 7.97917 128.664 9 128.278 9.9375C127.893 10.8646 127.424 11.5938 126.872 12.125C126.33 12.6562 125.794 13.1042 125.262 13.4688C124.731 13.8333 124.273 14.0781 123.887 14.2031L123.309 14.3906L126.325 22.875H121.325L118.669 15.0312H114.387L112.716 22.875H107.919ZM120.216 10.7188C121.195 10.7188 122.059 10.4219 122.809 9.82812C123.57 9.22396 123.95 8.42188 123.95 7.42188C123.95 6.69271 123.731 6.07292 123.294 5.5625C122.856 5.05208 122.278 4.79688 121.559 4.79688H116.559L115.278 10.7188H120.216Z" fill="#410F9E"/>
<path d="M107.919 22.875L112.653 0.46875H122.122C124.018 0.46875 125.611 1.10938 126.903 2.39062C128.205 3.67188 128.856 5.16667 128.856 6.875C128.856 7.97917 128.664 9 128.278 9.9375C127.893 10.8646 127.424 11.5938 126.872 12.125C126.33 12.6562 125.794 13.1042 125.262 13.4688C124.731 13.8333 124.273 14.0781 123.887 14.2031L123.309 14.3906L126.325 22.875H121.325L118.669 15.0312H114.387L112.716 22.875H107.919ZM120.216 10.7188C121.195 10.7188 122.059 10.4219 122.809 9.82812C123.57 9.22396 123.95 8.42188 123.95 7.42188C123.95 6.69271 123.731 6.07292 123.294 5.5625C122.856 5.05208 122.278 4.79688 121.559 4.79688H116.559L115.278 10.7188H120.216Z" fill="#453888"/>
<path d="M107.919 22.875L112.653 0.46875H122.122C124.018 0.46875 125.611 1.10938 126.903 2.39062C128.205 3.67188 128.856 5.16667 128.856 6.875C128.856 7.97917 128.664 9 128.278 9.9375C127.893 10.8646 127.424 11.5938 126.872 12.125C126.33 12.6562 125.794 13.1042 125.262 13.4688C124.731 13.8333 124.273 14.0781 123.887 14.2031L123.309 14.3906L126.325 22.875H121.325L118.669 15.0312H114.387L112.716 22.875H107.919ZM120.216 10.7188C121.195 10.7188 122.059 10.4219 122.809 9.82812C123.57 9.22396 123.95 8.42188 123.95 7.42188C123.95 6.69271 123.731 6.07292 123.294 5.5625C122.856 5.05208 122.278 4.79688 121.559 4.79688H116.559L115.278 10.7188H120.216Z" fill="#5946D7"/>
<path d="M141.84 19.0312C143.205 19.0312 144.449 18.5312 145.574 17.5312C146.71 16.5312 147.439 15.2708 147.762 13.75L150.574 0.46875H155.371L152.559 13.75C151.965 16.5417 150.673 18.8438 148.684 20.6562C146.705 22.4583 144.35 23.3594 141.621 23.3594C139.121 23.3594 137.033 22.625 135.356 21.1562C133.689 19.6771 132.856 17.8073 132.856 15.5469C132.856 14.974 132.918 14.375 133.043 13.75L135.856 0.46875H140.652L137.84 13.75C137.757 14.1146 137.715 14.5 137.715 14.9062C137.715 16.125 138.1 17.1198 138.871 17.8906C139.652 18.651 140.642 19.0312 141.84 19.0312Z" fill="#2E1066"/>
<path d="M141.84 19.0312C143.205 19.0312 144.449 18.5312 145.574 17.5312C146.71 16.5312 147.439 15.2708 147.762 13.75L150.574 0.46875H155.371L152.559 13.75C151.965 16.5417 150.673 18.8438 148.684 20.6562C146.705 22.4583 144.35 23.3594 141.621 23.3594C139.121 23.3594 137.033 22.625 135.356 21.1562C133.689 19.6771 132.856 17.8073 132.856 15.5469C132.856 14.974 132.918 14.375 133.043 13.75L135.856 0.46875H140.652L137.84 13.75C137.757 14.1146 137.715 14.5 137.715 14.9062C137.715 16.125 138.1 17.1198 138.871 17.8906C139.652 18.651 140.642 19.0312 141.84 19.0312Z" fill="#410F9E"/>
<path d="M141.84 19.0312C143.205 19.0312 144.449 18.5312 145.574 17.5312C146.71 16.5312 147.439 15.2708 147.762 13.75L150.574 0.46875H155.371L152.559 13.75C151.965 16.5417 150.673 18.8438 148.684 20.6562C146.705 22.4583 144.35 23.3594 141.621 23.3594C139.121 23.3594 137.033 22.625 135.356 21.1562C133.689 19.6771 132.856 17.8073 132.856 15.5469C132.856 14.974 132.918 14.375 133.043 13.75L135.856 0.46875H140.652L137.84 13.75C137.757 14.1146 137.715 14.5 137.715 14.9062C137.715 16.125 138.1 17.1198 138.871 17.8906C139.652 18.651 140.642 19.0312 141.84 19.0312Z" fill="#453888"/>
<path d="M141.84 19.0312C143.205 19.0312 144.449 18.5312 145.574 17.5312C146.71 16.5312 147.439 15.2708 147.762 13.75L150.574 0.46875H155.371L152.559 13.75C151.965 16.5417 150.673 18.8438 148.684 20.6562C146.705 22.4583 144.35 23.3594 141.621 23.3594C139.121 23.3594 137.033 22.625 135.356 21.1562C133.689 19.6771 132.856 17.8073 132.856 15.5469C132.856 14.974 132.918 14.375 133.043 13.75L135.856 0.46875H140.652L137.84 13.75C137.757 14.1146 137.715 14.5 137.715 14.9062C137.715 16.125 138.1 17.1198 138.871 17.8906C139.652 18.651 140.642 19.0312 141.84 19.0312Z" fill="#5946D7"/>
</svg>
