<svg width="24" height="24" viewBox="0 0 24 24" fill="none" xmlns="http://www.w3.org/2000/svg">
<path d="M5.87402 7L7.40902 14.246C7.62002 15.244 8.54902 15.923 9.56502 15.822L16.381 15.14C17.221 15.056 17.917 14.454 18.122 13.635L19.47 8.243C19.628 7.611 19.151 7 18.5 7H10.187" stroke="white" stroke-width="2" stroke-linecap="round" stroke-linejoin="round"/>
<path d="M5.874 7L5.224 4H3.5" stroke="white" stroke-width="2" stroke-linecap="round" stroke-linejoin="round"/>
<path d="M17.1088 19.267C16.9068 19.267 16.7428 19.431 16.7448 19.633C16.7448 19.835 16.9088 19.999 17.1108 19.999C17.3128 19.999 17.4768 19.835 17.4768 19.633C17.4758 19.431 17.3118 19.267 17.1088 19.267" stroke="white" stroke-width="2" stroke-linecap="round" stroke-linejoin="round"/>
<path d="M8.69724 19.267C8.49524 19.267 8.33124 19.431 8.33324 19.633C8.33124 19.836 8.49624 20 8.69824 20C8.90024 20 9.06424 19.836 9.06424 19.634C9.06424 19.431 8.90024 19.267 8.69724 19.267" stroke="white" stroke-width="2" stroke-linecap="round" stroke-linejoin="round"/>
</svg>
