<svg width="20" height="20" viewBox="0 0 20 20" fill="none" xmlns="http://www.w3.org/2000/svg">
<path fill-rule="evenodd" clip-rule="evenodd" d="M4.16683 10.8334C3.70641 10.8334 3.3335 10.4605 3.3335 10.0001C3.3335 9.53966 3.70641 9.16675 4.16683 9.16675C4.62725 9.16675 5.00016 9.53966 5.00016 10.0001C5.00016 10.4605 4.62725 10.8334 4.16683 10.8334Z" fill="white" stroke="white" stroke-width="1.5" stroke-linecap="round" stroke-linejoin="round"/>
<path fill-rule="evenodd" clip-rule="evenodd" d="M10.0003 10.8334C9.53991 10.8334 9.16699 10.4605 9.16699 10.0001C9.16699 9.53966 9.53991 9.16675 10.0003 9.16675C10.4607 9.16675 10.8337 9.53966 10.8337 10.0001C10.8337 10.4605 10.4607 10.8334 10.0003 10.8334Z" fill="white" stroke="white" stroke-width="1.5" stroke-linecap="round" stroke-linejoin="round"/>
<path fill-rule="evenodd" clip-rule="evenodd" d="M15.8333 10.8334C15.3729 10.8334 15 10.4605 15 10.0001C15 9.53966 15.3729 9.16675 15.8333 9.16675C16.2937 9.16675 16.6667 9.53966 16.6667 10.0001C16.6667 10.4605 16.2937 10.8334 15.8333 10.8334Z" fill="white" stroke="white" stroke-width="1.5" stroke-linecap="round" stroke-linejoin="round"/>
<path fill-rule="evenodd" clip-rule="evenodd" d="M4.16683 16.6667C3.70641 16.6667 3.3335 16.2937 3.3335 15.8333C3.3335 15.3729 3.70641 15 4.16683 15C4.62725 15 5.00016 15.3729 5.00016 15.8333C5.00016 16.2937 4.62725 16.6667 4.16683 16.6667Z" fill="white" stroke="white" stroke-width="1.5" stroke-linecap="round" stroke-linejoin="round"/>
<path fill-rule="evenodd" clip-rule="evenodd" d="M10.0003 16.6667C9.53991 16.6667 9.16699 16.2937 9.16699 15.8333C9.16699 15.3729 9.53991 15 10.0003 15C10.4607 15 10.8337 15.3729 10.8337 15.8333C10.8337 16.2937 10.4607 16.6667 10.0003 16.6667Z" fill="white" stroke="white" stroke-width="1.5" stroke-linecap="round" stroke-linejoin="round"/>
<path fill-rule="evenodd" clip-rule="evenodd" d="M15.8333 16.6667C15.3729 16.6667 15 16.2937 15 15.8333C15 15.3729 15.3729 15 15.8333 15C16.2937 15 16.6667 15.3729 16.6667 15.8333C16.6667 16.2937 16.2937 16.6667 15.8333 16.6667Z" fill="white" stroke="white" stroke-width="1.5" stroke-linecap="round" stroke-linejoin="round"/>
<path fill-rule="evenodd" clip-rule="evenodd" d="M4.16683 5.00004C3.70641 5.00004 3.3335 4.62712 3.3335 4.16671C3.3335 3.70629 3.70641 3.33337 4.16683 3.33337C4.62725 3.33337 5.00016 3.70629 5.00016 4.16671C5.00016 4.62712 4.62725 5.00004 4.16683 5.00004Z" fill="white" stroke="white" stroke-width="1.5" stroke-linecap="round" stroke-linejoin="round"/>
<path fill-rule="evenodd" clip-rule="evenodd" d="M10.0003 5.00004C9.53991 5.00004 9.16699 4.62712 9.16699 4.16671C9.16699 3.70629 9.53991 3.33337 10.0003 3.33337C10.4607 3.33337 10.8337 3.70629 10.8337 4.16671C10.8337 4.62712 10.4607 5.00004 10.0003 5.00004Z" fill="white" stroke="white" stroke-width="1.5" stroke-linecap="round" stroke-linejoin="round"/>
<path fill-rule="evenodd" clip-rule="evenodd" d="M15.8333 5.00004C15.3729 5.00004 15 4.62712 15 4.16671C15 3.70629 15.3729 3.33337 15.8333 3.33337C16.2937 3.33337 16.6667 3.70629 16.6667 4.16671C16.6667 4.62712 16.2937 5.00004 15.8333 5.00004Z" fill="white" stroke="white" stroke-width="1.5" stroke-linecap="round" stroke-linejoin="round"/>
</svg>
