<svg width="35" height="35" viewBox="0 0 40 40" fill="none" xmlns="http://www.w3.org/2000/svg">
<g clip-path="url(#clip0_229_12)">
<g clip-path="url(#clip1_229_12)">
<g clip-path="url(#clip2_229_12)">
<path d="M21.2444 38.4129L21.2443 38.4114L21.2444 38.4129ZM38.4098 18.7564L38.4067 18.7567C38.4082 18.7566 38.4097 18.7564 38.4113 18.7562L38.4098 18.7564ZM28.758 7.54255L28.7646 7.54908C28.7624 7.5469 28.7602 7.54473 28.758 7.54255Z" fill="#2E1066"/>
<path d="M21.2444 38.4129L21.2443 38.4114L21.2444 38.4129ZM38.4098 18.7564L38.4067 18.7567C38.4082 18.7566 38.4097 18.7564 38.4113 18.7562L38.4098 18.7564ZM28.758 7.54255L28.7646 7.54908C28.7624 7.5469 28.7602 7.54473 28.758 7.54255Z" fill="#410F9E"/>
<path d="M21.2444 38.4129L21.2443 38.4114L21.2444 38.4129ZM38.4098 18.7564L38.4067 18.7567C38.4082 18.7566 38.4097 18.7564 38.4113 18.7562L38.4098 18.7564ZM28.758 7.54255L28.7646 7.54908C28.7624 7.5469 28.7602 7.54473 28.758 7.54255Z" fill="#453888"/>
<path d="M21.2444 38.4129L21.2443 38.4114L21.2444 38.4129ZM38.4098 18.7564L38.4067 18.7567C38.4082 18.7566 38.4097 18.7564 38.4113 18.7562L38.4098 18.7564ZM28.758 7.54255L28.7646 7.54908C28.7624 7.5469 28.7602 7.54473 28.758 7.54255Z" fill="#5946D7"/>
<path d="M21.2444 38.4129L21.2443 38.4114L21.2444 38.4129ZM38.4098 18.7564L38.4067 18.7567C38.4082 18.7566 38.4097 18.7564 38.4113 18.7562L38.4098 18.7564ZM28.758 7.54255L28.7646 7.54908C28.7624 7.5469 28.7602 7.54473 28.758 7.54255Z" stroke="#2E1066" stroke-width="10" stroke-linecap="round" stroke-linejoin="round"/>
<path d="M21.2444 38.4129L21.2443 38.4114L21.2444 38.4129ZM38.4098 18.7564L38.4067 18.7567C38.4082 18.7566 38.4097 18.7564 38.4113 18.7562L38.4098 18.7564ZM28.758 7.54255L28.7646 7.54908C28.7624 7.5469 28.7602 7.54473 28.758 7.54255Z" stroke="#410F9E" stroke-width="10" stroke-linecap="round" stroke-linejoin="round"/>
<path d="M21.2444 38.4129L21.2443 38.4114L21.2444 38.4129ZM38.4098 18.7564L38.4067 18.7567C38.4082 18.7566 38.4097 18.7564 38.4113 18.7562L38.4098 18.7564ZM28.758 7.54255L28.7646 7.54908C28.7624 7.5469 28.7602 7.54473 28.758 7.54255Z" stroke="#453888" stroke-width="10" stroke-linecap="round" stroke-linejoin="round"/>
<path d="M21.2444 38.4129L21.2443 38.4114L21.2444 38.4129ZM38.4098 18.7564L38.4067 18.7567C38.4082 18.7566 38.4097 18.7564 38.4113 18.7562L38.4098 18.7564ZM28.758 7.54255L28.7646 7.54908C28.7624 7.5469 28.7602 7.54473 28.758 7.54255Z" stroke="#5946D7" stroke-width="10" stroke-linecap="round" stroke-linejoin="round"/>
</g>
<circle cx="20" cy="20" r="14" fill="white"/>
<circle cx="20" cy="20" r="14" stroke="#2E1066" stroke-width="4"/>
<circle cx="20" cy="20" r="14" stroke="#410F9E" stroke-width="4"/>
<circle cx="20" cy="20" r="14" stroke="#453888" stroke-width="4"/>
<circle cx="20" cy="20" r="14" stroke="#5946D7" stroke-width="4"/>
<g clip-path="url(#clip3_229_12)">
<path d="M23.4301 16.9239C23.413 16.9037 23.3986 16.8841 23.3784 16.8645L22.4907 15.9852C23.2269 15.8138 24.0195 15.1808 24.0195 14.5313C24.0195 13.7746 22.9963 13.5061 22.123 13.5061C21.2099 13.5061 21.104 14.1481 21.0931 14.6018L18.8026 12.3355C18.3373 11.8627 17.4547 11.4907 16.795 11.4907H12.3339H12.3329H7.87087C7.21165 11.4907 6.32958 11.8627 5.86373 12.3355L3.57376 14.6018C3.56187 14.1481 3.45588 13.5061 2.54382 13.5061C1.66951 13.5061 0.646809 13.7746 0.646809 14.5313C0.646809 15.1808 1.43995 15.8138 2.17621 15.9852L1.28845 16.8645C1.26829 16.8841 1.25433 16.9037 1.23675 16.9239C0.28695 17.757 -0.333496 19.3022 -0.333496 20.4234V23.7553C-0.333496 24.5639 -0.022756 25.2978 0.479288 25.8449V27.137C0.479288 27.8926 1.0956 28.5087 1.85358 28.5087H3.51534C4.27332 28.5087 4.88911 27.8937 4.88911 27.137V26.8064H12.3329H12.3339H19.7772V27.137C19.7772 27.8937 20.3925 28.5087 21.1515 28.5087H22.8128C23.5713 28.5087 24.1865 27.8926 24.1865 27.137V25.8449C24.6891 25.2978 24.9993 24.5639 24.9993 23.7553V20.4234C25.0004 19.3022 24.3799 17.757 23.4301 16.9239ZM6.70495 13.3426C7.02706 13.0672 7.59012 12.8582 7.87087 12.8582L10.9998 13L12.637 13.3426H16.5499C16.8306 13.3426 17.3518 13.2307 17.6739 13.5061L19.9998 16.3301H12.3339H12.3329H3.70199L6.70495 13.3426ZM0.696962 19.9193C0.696962 19.099 1.32258 18.433 2.09503 18.433C2.86697 18.433 5.3896 19.9527 5.3896 20.7731C5.3896 21.5935 2.86697 21.4035 2.09503 21.4035C1.32258 21.4035 0.696962 20.7402 0.696962 19.9193ZM4.88963 25.3456H4.62335H4.35708L2.77752 25.3482C2.33908 25.2081 2.02989 25.0447 1.81118 24.8691C1.70053 24.7804 1.61574 24.6881 1.54956 24.5963C1.48286 24.5035 1.43426 24.4122 1.40272 24.3209C1.20624 23.751 1.61212 23.2273 1.61212 23.2273H4.30796L6.10518 25.3445L4.88963 25.3456ZM16.2097 25.3466H12.3339H12.3329H8.45719C7.64906 25.3466 6.99294 24.6733 6.99294 23.8444H12.3329H12.3339H17.6739C17.6739 24.6743 17.0178 25.3466 16.2097 25.3466ZM16.5499 22.8192H12.3339H12.3329H8.11698C7.23802 22.8192 6.5245 21.707 6.5245 20.3353H12.3329H12.3339H18.1424C18.1424 21.7075 17.4288 22.8192 16.5499 22.8192ZM23.2647 24.322C23.2326 24.4132 23.184 24.5045 23.1173 24.5968C23.0516 24.6886 22.9668 24.781 22.8557 24.8696C22.6375 25.0452 22.3278 25.2097 21.8893 25.3488L20.3098 25.3461H20.0435H19.7772H18.5606L20.3589 23.2289H23.0542C23.0542 23.2289 23.4606 23.751 23.2647 24.322ZM22.5718 21.4035C21.8004 21.4035 19.2778 21.5924 19.2778 20.7731C19.2778 19.9538 21.8004 18.433 22.5718 18.433C23.3443 18.433 23.9699 19.099 23.9699 19.9193C23.9699 20.7391 23.3443 21.4035 22.5718 21.4035Z" fill="#2E1066"/>
<path d="M23.4301 16.9239C23.413 16.9037 23.3986 16.8841 23.3784 16.8645L22.4907 15.9852C23.2269 15.8138 24.0195 15.1808 24.0195 14.5313C24.0195 13.7746 22.9963 13.5061 22.123 13.5061C21.2099 13.5061 21.104 14.1481 21.0931 14.6018L18.8026 12.3355C18.3373 11.8627 17.4547 11.4907 16.795 11.4907H12.3339H12.3329H7.87087C7.21165 11.4907 6.32958 11.8627 5.86373 12.3355L3.57376 14.6018C3.56187 14.1481 3.45588 13.5061 2.54382 13.5061C1.66951 13.5061 0.646809 13.7746 0.646809 14.5313C0.646809 15.1808 1.43995 15.8138 2.17621 15.9852L1.28845 16.8645C1.26829 16.8841 1.25433 16.9037 1.23675 16.9239C0.28695 17.757 -0.333496 19.3022 -0.333496 20.4234V23.7553C-0.333496 24.5639 -0.022756 25.2978 0.479288 25.8449V27.137C0.479288 27.8926 1.0956 28.5087 1.85358 28.5087H3.51534C4.27332 28.5087 4.88911 27.8937 4.88911 27.137V26.8064H12.3329H12.3339H19.7772V27.137C19.7772 27.8937 20.3925 28.5087 21.1515 28.5087H22.8128C23.5713 28.5087 24.1865 27.8926 24.1865 27.137V25.8449C24.6891 25.2978 24.9993 24.5639 24.9993 23.7553V20.4234C25.0004 19.3022 24.3799 17.757 23.4301 16.9239ZM6.70495 13.3426C7.02706 13.0672 7.59012 12.8582 7.87087 12.8582L10.9998 13L12.637 13.3426H16.5499C16.8306 13.3426 17.3518 13.2307 17.6739 13.5061L19.9998 16.3301H12.3339H12.3329H3.70199L6.70495 13.3426ZM0.696962 19.9193C0.696962 19.099 1.32258 18.433 2.09503 18.433C2.86697 18.433 5.3896 19.9527 5.3896 20.7731C5.3896 21.5935 2.86697 21.4035 2.09503 21.4035C1.32258 21.4035 0.696962 20.7402 0.696962 19.9193ZM4.88963 25.3456H4.62335H4.35708L2.77752 25.3482C2.33908 25.2081 2.02989 25.0447 1.81118 24.8691C1.70053 24.7804 1.61574 24.6881 1.54956 24.5963C1.48286 24.5035 1.43426 24.4122 1.40272 24.3209C1.20624 23.751 1.61212 23.2273 1.61212 23.2273H4.30796L6.10518 25.3445L4.88963 25.3456ZM16.2097 25.3466H12.3339H12.3329H8.45719C7.64906 25.3466 6.99294 24.6733 6.99294 23.8444H12.3329H12.3339H17.6739C17.6739 24.6743 17.0178 25.3466 16.2097 25.3466ZM16.5499 22.8192H12.3339H12.3329H8.11698C7.23802 22.8192 6.5245 21.707 6.5245 20.3353H12.3329H12.3339H18.1424C18.1424 21.7075 17.4288 22.8192 16.5499 22.8192ZM23.2647 24.322C23.2326 24.4132 23.184 24.5045 23.1173 24.5968C23.0516 24.6886 22.9668 24.781 22.8557 24.8696C22.6375 25.0452 22.3278 25.2097 21.8893 25.3488L20.3098 25.3461H20.0435H19.7772H18.5606L20.3589 23.2289H23.0542C23.0542 23.2289 23.4606 23.751 23.2647 24.322ZM22.5718 21.4035C21.8004 21.4035 19.2778 21.5924 19.2778 20.7731C19.2778 19.9538 21.8004 18.433 22.5718 18.433C23.3443 18.433 23.9699 19.099 23.9699 19.9193C23.9699 20.7391 23.3443 21.4035 22.5718 21.4035Z" fill="#410F9E"/>
<path d="M23.4301 16.9239C23.413 16.9037 23.3986 16.8841 23.3784 16.8645L22.4907 15.9852C23.2269 15.8138 24.0195 15.1808 24.0195 14.5313C24.0195 13.7746 22.9963 13.5061 22.123 13.5061C21.2099 13.5061 21.104 14.1481 21.0931 14.6018L18.8026 12.3355C18.3373 11.8627 17.4547 11.4907 16.795 11.4907H12.3339H12.3329H7.87087C7.21165 11.4907 6.32958 11.8627 5.86373 12.3355L3.57376 14.6018C3.56187 14.1481 3.45588 13.5061 2.54382 13.5061C1.66951 13.5061 0.646809 13.7746 0.646809 14.5313C0.646809 15.1808 1.43995 15.8138 2.17621 15.9852L1.28845 16.8645C1.26829 16.8841 1.25433 16.9037 1.23675 16.9239C0.28695 17.757 -0.333496 19.3022 -0.333496 20.4234V23.7553C-0.333496 24.5639 -0.022756 25.2978 0.479288 25.8449V27.137C0.479288 27.8926 1.0956 28.5087 1.85358 28.5087H3.51534C4.27332 28.5087 4.88911 27.8937 4.88911 27.137V26.8064H12.3329H12.3339H19.7772V27.137C19.7772 27.8937 20.3925 28.5087 21.1515 28.5087H22.8128C23.5713 28.5087 24.1865 27.8926 24.1865 27.137V25.8449C24.6891 25.2978 24.9993 24.5639 24.9993 23.7553V20.4234C25.0004 19.3022 24.3799 17.757 23.4301 16.9239ZM6.70495 13.3426C7.02706 13.0672 7.59012 12.8582 7.87087 12.8582L10.9998 13L12.637 13.3426H16.5499C16.8306 13.3426 17.3518 13.2307 17.6739 13.5061L19.9998 16.3301H12.3339H12.3329H3.70199L6.70495 13.3426ZM0.696962 19.9193C0.696962 19.099 1.32258 18.433 2.09503 18.433C2.86697 18.433 5.3896 19.9527 5.3896 20.7731C5.3896 21.5935 2.86697 21.4035 2.09503 21.4035C1.32258 21.4035 0.696962 20.7402 0.696962 19.9193ZM4.88963 25.3456H4.62335H4.35708L2.77752 25.3482C2.33908 25.2081 2.02989 25.0447 1.81118 24.8691C1.70053 24.7804 1.61574 24.6881 1.54956 24.5963C1.48286 24.5035 1.43426 24.4122 1.40272 24.3209C1.20624 23.751 1.61212 23.2273 1.61212 23.2273H4.30796L6.10518 25.3445L4.88963 25.3456ZM16.2097 25.3466H12.3339H12.3329H8.45719C7.64906 25.3466 6.99294 24.6733 6.99294 23.8444H12.3329H12.3339H17.6739C17.6739 24.6743 17.0178 25.3466 16.2097 25.3466ZM16.5499 22.8192H12.3339H12.3329H8.11698C7.23802 22.8192 6.5245 21.707 6.5245 20.3353H12.3329H12.3339H18.1424C18.1424 21.7075 17.4288 22.8192 16.5499 22.8192ZM23.2647 24.322C23.2326 24.4132 23.184 24.5045 23.1173 24.5968C23.0516 24.6886 22.9668 24.781 22.8557 24.8696C22.6375 25.0452 22.3278 25.2097 21.8893 25.3488L20.3098 25.3461H20.0435H19.7772H18.5606L20.3589 23.2289H23.0542C23.0542 23.2289 23.4606 23.751 23.2647 24.322ZM22.5718 21.4035C21.8004 21.4035 19.2778 21.5924 19.2778 20.7731C19.2778 19.9538 21.8004 18.433 22.5718 18.433C23.3443 18.433 23.9699 19.099 23.9699 19.9193C23.9699 20.7391 23.3443 21.4035 22.5718 21.4035Z" fill="#453888"/>
<path d="M23.4301 16.9239C23.413 16.9037 23.3986 16.8841 23.3784 16.8645L22.4907 15.9852C23.2269 15.8138 24.0195 15.1808 24.0195 14.5313C24.0195 13.7746 22.9963 13.5061 22.123 13.5061C21.2099 13.5061 21.104 14.1481 21.0931 14.6018L18.8026 12.3355C18.3373 11.8627 17.4547 11.4907 16.795 11.4907H12.3339H12.3329H7.87087C7.21165 11.4907 6.32958 11.8627 5.86373 12.3355L3.57376 14.6018C3.56187 14.1481 3.45588 13.5061 2.54382 13.5061C1.66951 13.5061 0.646809 13.7746 0.646809 14.5313C0.646809 15.1808 1.43995 15.8138 2.17621 15.9852L1.28845 16.8645C1.26829 16.8841 1.25433 16.9037 1.23675 16.9239C0.28695 17.757 -0.333496 19.3022 -0.333496 20.4234V23.7553C-0.333496 24.5639 -0.022756 25.2978 0.479288 25.8449V27.137C0.479288 27.8926 1.0956 28.5087 1.85358 28.5087H3.51534C4.27332 28.5087 4.88911 27.8937 4.88911 27.137V26.8064H12.3329H12.3339H19.7772V27.137C19.7772 27.8937 20.3925 28.5087 21.1515 28.5087H22.8128C23.5713 28.5087 24.1865 27.8926 24.1865 27.137V25.8449C24.6891 25.2978 24.9993 24.5639 24.9993 23.7553V20.4234C25.0004 19.3022 24.3799 17.757 23.4301 16.9239ZM6.70495 13.3426C7.02706 13.0672 7.59012 12.8582 7.87087 12.8582L10.9998 13L12.637 13.3426H16.5499C16.8306 13.3426 17.3518 13.2307 17.6739 13.5061L19.9998 16.3301H12.3339H12.3329H3.70199L6.70495 13.3426ZM0.696962 19.9193C0.696962 19.099 1.32258 18.433 2.09503 18.433C2.86697 18.433 5.3896 19.9527 5.3896 20.7731C5.3896 21.5935 2.86697 21.4035 2.09503 21.4035C1.32258 21.4035 0.696962 20.7402 0.696962 19.9193ZM4.88963 25.3456H4.62335H4.35708L2.77752 25.3482C2.33908 25.2081 2.02989 25.0447 1.81118 24.8691C1.70053 24.7804 1.61574 24.6881 1.54956 24.5963C1.48286 24.5035 1.43426 24.4122 1.40272 24.3209C1.20624 23.751 1.61212 23.2273 1.61212 23.2273H4.30796L6.10518 25.3445L4.88963 25.3456ZM16.2097 25.3466H12.3339H12.3329H8.45719C7.64906 25.3466 6.99294 24.6733 6.99294 23.8444H12.3329H12.3339H17.6739C17.6739 24.6743 17.0178 25.3466 16.2097 25.3466ZM16.5499 22.8192H12.3339H12.3329H8.11698C7.23802 22.8192 6.5245 21.707 6.5245 20.3353H12.3329H12.3339H18.1424C18.1424 21.7075 17.4288 22.8192 16.5499 22.8192ZM23.2647 24.322C23.2326 24.4132 23.184 24.5045 23.1173 24.5968C23.0516 24.6886 22.9668 24.781 22.8557 24.8696C22.6375 25.0452 22.3278 25.2097 21.8893 25.3488L20.3098 25.3461H20.0435H19.7772H18.5606L20.3589 23.2289H23.0542C23.0542 23.2289 23.4606 23.751 23.2647 24.322ZM22.5718 21.4035C21.8004 21.4035 19.2778 21.5924 19.2778 20.7731C19.2778 19.9538 21.8004 18.433 22.5718 18.433C23.3443 18.433 23.9699 19.099 23.9699 19.9193C23.9699 20.7391 23.3443 21.4035 22.5718 21.4035Z" fill="#5946D7"/>
<path d="M16.2097 25.3466H12.3339H12.3329H8.45719C7.64906 25.3466 6.99294 24.6733 6.99294 23.8444H12.3329H12.3339H17.6739C17.6739 24.6743 17.0178 25.3466 16.2097 25.3466Z" fill="#2E1066"/>
<path d="M16.2097 25.3466H12.3339H12.3329H8.45719C7.64906 25.3466 6.99294 24.6733 6.99294 23.8444H12.3329H12.3339H17.6739C17.6739 24.6743 17.0178 25.3466 16.2097 25.3466Z" fill="#410F9E"/>
<path d="M16.2097 25.3466H12.3339H12.3329H8.45719C7.64906 25.3466 6.99294 24.6733 6.99294 23.8444H12.3329H12.3339H17.6739C17.6739 24.6743 17.0178 25.3466 16.2097 25.3466Z" fill="#453888"/>
<path d="M16.2097 25.3466H12.3339H12.3329H8.45719C7.64906 25.3466 6.99294 24.6733 6.99294 23.8444H12.3329H12.3339H17.6739C17.6739 24.6743 17.0178 25.3466 16.2097 25.3466Z" fill="#5946D7"/>
</g>
<circle cx="20" cy="20" r="11.5" stroke="white" stroke-width="3"/>
</g>
</g>
<defs>
<clipPath id="clip0_229_12">
<rect width="40" height="40" fill="white"/>
</clipPath>
<clipPath id="clip1_229_12">
<rect width="40" height="40" fill="white"/>
</clipPath>
<clipPath id="clip2_229_12">
<rect width="40" height="40" fill="white"/>
</clipPath>
<clipPath id="clip3_229_12">
<rect width="19" height="26" fill="white" transform="translate(6 7)"/>
</clipPath>
</defs>
</svg>
